<svg width="76" height="25" viewBox="0 0 76 25" fill="none" xmlns="http://www.w3.org/2000/svg">
    <path
        d="M0.793213 24.7993V0.198056C0.793213 0.0897856 0.88534 0 1.00259 0H15.5838C15.6983 0 15.7932 0.0871448 15.7932 0.198056V4.02451C15.7932 4.13278 15.7011 4.22256 15.5838 4.22256H6.10868C5.99422 4.22256 5.8993 4.30971 5.8993 4.42062V9.32978C5.8993 9.43805 5.99143 9.52783 6.10868 9.52783H14.0819C14.1963 9.52783 14.2913 9.61498 14.2913 9.72589V13.5523C14.2913 13.6606 14.1991 13.7504 14.0819 13.7504H6.10868C5.99422 13.7504 5.8993 13.8375 5.8993 13.9485V24.8019C5.8993 24.9102 5.80717 25 5.68992 25H1.00259C0.888132 25 0.793213 24.9129 0.793213 24.8019V24.7993Z"
        fill="currentColor" />
    <path
        d="M31.5791 25C29.8683 25 28.6415 24.6355 27.9017 23.9013C27.1618 23.1698 26.7932 22.05 26.7932 20.5393V0.198077C26.7932 0.0897951 26.884 0 26.9995 0H31.5131C31.6258 0 31.7193 0.087154 31.7193 0.198077V21.1203C31.7193 21.2286 31.8101 21.3184 31.9256 21.3184H33.5869C33.7024 21.3184 33.7932 21.4056 33.7932 21.5165V24.8019C33.7932 24.9102 33.7024 25 33.5869 25H31.5763H31.5791Z"
        fill="currentColor" />
    <path
        d="M18.0026 7H22.5838C22.6983 7 22.7932 7.09104 22.7932 7.20083V24.7992C22.7932 24.909 22.6983 25 22.5838 25H18.0026C17.8881 25 17.7932 24.909 17.7932 24.7992V7.20083C17.7932 7.09104 17.8881 7 18.0026 7Z"
        fill="currentColor" />
    <path
        d="M20.7932 5C22.4501 5 23.7932 3.88074 23.7932 2.5C23.7932 1.11926 22.4472 0 20.7932 0C19.1393 0 17.7932 1.11926 17.7932 2.5C17.7932 3.88074 19.1363 5 20.7932 5Z"
        fill="currentColor" />
    <path
        d="M57.9615 6.73542C57.4079 5.15418 56.6323 3.86234 55.6374 2.85729C54.6425 1.85224 53.4363 1.12608 52.0243 0.676173C50.6122 0.223637 49.0369 0 47.2932 0C45.5495 0 43.9716 0.223637 42.5595 0.676173C41.1474 1.12608 39.9439 1.85224 38.9464 2.85729C37.9488 3.86234 37.1759 5.15418 36.6223 6.73542C36.0687 8.31667 35.7932 10.2373 35.7932 12.5C35.7932 14.7627 36.0687 16.6833 36.6223 18.2646C37.1759 19.8458 37.9515 21.1377 38.9464 22.1427C39.9412 23.1478 41.1474 23.8739 42.5595 24.3238C43.9716 24.7764 45.5495 25 47.2932 25C49.0369 25 50.6148 24.7764 52.0243 24.3238C53.4363 23.8739 54.6398 23.1478 55.6374 22.1427C56.6323 21.1377 57.4079 19.8458 57.9615 18.2646C58.5151 16.6833 58.7932 14.7627 58.7932 12.5C58.7932 10.2373 58.5151 8.31667 57.9615 6.73542ZM53.6129 14.2365C53.6129 17.7831 50.7833 20.6562 47.2905 20.6562C43.7977 20.6562 40.9682 17.7805 40.9682 14.2365V10.7635C40.9682 7.2169 43.7977 4.34382 47.2905 4.34382C50.7833 4.34382 53.6129 7.21953 53.6129 10.7635V14.2365Z"
        fill="currentColor" />
    <path
        d="M61.7932 24.7992V21.2966C61.7932 21.2538 61.8071 21.2109 61.8348 21.1761L69.7492 11.0595C69.8547 10.9283 69.7548 10.7382 69.5827 10.7382H62.2844C62.1706 10.7382 62.0763 10.6498 62.0763 10.5373V7.20083C62.0763 7.09104 62.1706 7 62.2844 7H75.3714C75.488 7 75.5795 7.08837 75.5795 7.20083V10.7034C75.5795 10.7462 75.5657 10.7891 75.5379 10.8239L67.5542 20.9405C67.4487 21.0717 67.5486 21.2645 67.7207 21.2645H75.5851C75.7016 21.2645 75.7932 21.3529 75.7932 21.4653V24.7992C75.7932 24.909 75.7016 25 75.5851 25H62.0013C61.8848 25 61.7932 24.9116 61.7932 24.7992Z"
        fill="currentColor" />
</svg>