<svg width="1000" height="897" viewBox="0 0 1000 897" fill="none" xmlns="http://www.w3.org/2000/svg">
<path fill-rule="evenodd" clip-rule="evenodd" d="M450.756 0.00783786C696.155 1.46417 897.499 202.444 895.678 452.215C895.321 502.975 886.412 551.241 870.727 596.664C837.283 560.016 789.586 536.683 736.72 535.386L733.201 535.331C662.086 534.908 600.402 573.984 568.137 631.393C495.132 638.865 438.13 700.538 438.13 775.53L438.143 777.404C438.753 825.592 462.888 868.109 499.589 894.004C482.635 895.932 465.376 896.889 447.843 896.778C200.622 897.87 -1.08721 695.433 0.00440998 446.392C1.09666 200.262 202.078 -1.4486 450.756 0.00783786ZM614.961 163.487C570.18 161.666 538.139 184.242 513.017 218.83C488.257 253.057 477.334 293.105 465.32 332.791C462.043 344.443 459.129 356.095 455.487 368.836C412.159 362.647 370.29 356.456 327.327 350.266C325.87 361.919 324.414 372.843 322.955 384.495C365.556 391.049 406.335 397.238 448.207 403.789C442.38 427.82 437.281 450.029 431.821 472.604C390.679 466.779 351.356 461.318 312.032 455.858C310.576 468.601 309.121 478.43 307.665 489.717C347.351 495.906 385.582 501.732 423.812 507.557C423.812 511.925 424.538 514.478 423.812 516.661C411.433 568.725 400.145 621.521 386.31 673.224C379.756 697.981 369.195 721.647 348.807 739.123C332.06 753.322 313.488 751.136 300.745 733.297C294.921 725.287 290.188 715.821 282.543 710.358C277.08 706.355 264.701 703.806 260.698 707.083C254.871 712.181 250.502 722.739 250.867 730.749C251.233 737.667 258.146 746.042 264.335 750.775C285.089 766.796 309.852 768.979 334.609 764.246C376.48 755.87 405.97 729.657 424.177 692.883C438.738 664.119 449.299 633.171 459.492 602.221C468.596 574.187 474.786 545.424 482.066 516.298C523.209 522.488 563.261 528.311 604.404 534.136C608.045 522.487 610.957 511.564 614.234 500.277C571.271 493.723 530.129 487.894 488.986 481.705C494.084 457.313 498.451 435.829 503.184 412.163C542.141 417.626 580.374 423.087 619.695 428.549C622.972 416.898 625.884 406.705 629.161 395.053C588.748 389.228 550.153 383.399 508.645 377.21C522.845 327.693 534.86 280.36 549.787 234.12C554.52 218.829 565.808 204.63 577.095 192.616C592.024 177.323 612.413 180.599 625.157 197.71C630.255 204.629 635.35 212.276 641.543 218.466C649.553 226.111 661.566 230.115 669.576 222.47C674.674 217.372 677.952 205.358 675.037 196.983C672.49 190.065 671.034 189.338 668.122 186.061C653.922 170.04 634.988 164.216 614.961 163.487Z" fill="#0090FF"/>
<path fill-rule="evenodd" clip-rule="evenodd" d="M459.129 602.222C448.933 633.171 438.375 664.118 423.811 692.882C405.605 729.656 376.114 755.873 334.242 764.245C309.484 768.978 284.727 766.795 263.973 750.775C257.784 746.042 250.865 737.667 250.5 730.748C250.135 722.737 254.507 712.18 260.331 707.082C264.335 703.805 276.717 706.355 282.177 710.359C289.822 715.822 294.555 725.288 300.383 733.298C313.126 751.14 331.694 753.322 348.441 739.123C368.833 721.646 379.391 697.98 385.945 673.223C399.78 621.519 411.067 568.727 423.446 516.659C424.176 514.476 423.446 511.926 423.446 507.558C385.216 501.733 346.985 495.905 307.299 489.716C308.755 478.429 310.214 468.601 311.67 455.857C350.992 461.317 390.314 466.78 431.456 472.604C436.919 450.03 442.014 427.82 447.842 403.792C405.969 397.238 365.192 391.048 322.593 384.494C324.049 372.842 325.505 361.92 326.961 350.267C369.925 356.457 411.794 362.646 455.122 368.839C458.764 356.095 461.677 344.443 464.954 332.791C476.968 293.104 487.893 253.056 512.65 218.829C537.773 184.241 569.814 161.666 614.598 163.487C634.622 164.216 653.555 170.041 667.755 186.062C670.667 189.339 672.123 190.065 674.674 196.984C677.586 205.359 674.309 217.373 669.211 222.471C661.201 230.116 649.187 226.113 641.177 218.464C634.987 212.275 629.889 204.63 624.791 197.711C612.048 180.599 591.659 177.322 576.73 192.616C565.445 204.63 554.158 218.829 549.425 234.12C534.495 280.361 522.482 327.696 508.282 377.211C549.786 383.4 588.382 389.227 628.798 395.052C625.521 406.704 622.608 416.897 619.331 428.549C580.007 423.087 541.779 417.627 502.819 412.164C498.086 435.83 493.718 457.313 488.62 481.706C529.762 487.895 570.905 493.723 613.869 500.277C610.592 511.564 607.679 522.487 604.037 534.136C562.895 528.311 522.843 522.487 481.701 516.297C474.785 545.423 468.595 574.187 459.129 602.222Z" fill="white"/>
<path d="M733.048 561.09C797.876 561.477 854.243 600.331 879.662 656.395H880.825C946.621 656.395 1000 709.734 1000 775.53C1000 841.327 946.661 894.665 880.865 894.666H583.025C517.228 894.665 463.89 841.327 463.89 775.53C463.89 709.734 517.268 656.395 583.065 656.395H584.315C609.868 600.099 666.743 560.695 733.048 561.09Z" fill="white"/>
<path d="M880.865 894.666C946.661 894.665 1000 841.327 1000 775.53C1000 709.734 946.621 656.395 880.825 656.395H879.662C854.243 600.331 797.876 561.477 733.048 561.09C666.743 560.695 609.868 600.099 584.315 656.395H583.065C517.268 656.395 463.89 709.734 463.89 775.53C463.89 841.327 517.228 894.665 583.025 894.666H880.865ZM953.634 775.53C953.634 815.72 921.054 848.299 880.865 848.299H583.025C542.835 848.299 510.256 815.72 510.256 775.53L510.278 773.654C511.275 734.351 543.483 702.761 583.065 702.761H614.189L626.536 675.559C644.854 635.2 685.534 607.175 732.771 607.456C778.883 607.731 819.229 635.388 837.434 675.541L849.776 702.761H880.825C921.034 702.761 953.634 735.362 953.634 775.53Z" fill="url(#paint0_linear_160_398)"/>
<defs>
<linearGradient id="paint0_linear_160_398" x1="599.5" y1="608" x2="819" y2="895" gradientUnits="userSpaceOnUse">
<stop stop-color="#39C1CB"/>
<stop offset="1" stop-color="#006FEC"/>
</linearGradient>
</defs>
</svg>
